
<svg  version="1.1" id="Icon_Set" xmlns="http://www.w3.org/2000/svg" x="0" y="0" viewBox="0 0 500 500" style="enable-background:new 0 0 512 512" xml:space="preserve"><style>.st0{fill:#7dac51}.st1{fill:#5b7c31}.st2{fill:#463218}.st3{fill:#e56823}.st5{fill:#fff}</style><g id="BEET">
<path class="st0" d="m228.2 259.7-5.7-4.1c-6.4-4.6-15.1-4.3-21.1.8-7 6.1-17.5 5.5-23.8-1.4-3.8-4.3-5.1-10.2-3.5-15.7-9.8.5-18.5-6.1-20.7-15.6-13.8 2.3-26.9-7.1-29.2-20.9-1.3-7.7 1-15.5 6.3-21.3-5.2-8.5-3.4-19.6 4.2-26.1l17.7-15.1c7.6-6.5 18.8-6.5 26.4-.1 11.7-7.7 27.4-4.5 35.2 7.1 4.3 6.5 5.4 14.6 2.9 22 9 3.7 14.1 13.4 12.1 22.9 5.7-.7 11.3 1.5 15 5.9 5.8 7.2 4.8 17.8-2.3 23.7-6 5.1-7.7 13.7-4.1 20.7l3.2 6.2-12.6 11z"/>
<path class="st1" d="m143.5 148-8.9 7.6c-7.6 6.5-9.3 17.5-4.2 26.1-9.5 10.4-8.7 26.4 1.6 35.9 5.8 5.3 13.6 7.6 21.3 6.3 2.3 9.5 11 16 20.7 15.6-1.6 5.5-.2 11.4 3.5 15.7 6.2 6.9 16.8 7.5 23.8 1.4 6-5.1 14.7-5.5 21.1-.8l5.7 4.1 6.3-5.4L143.5 148z"/>
<path class="st2" d="M190.3 267.6c-6.6 0-13.1-2.6-17.8-7.8-3.6-4.1-5.6-9-6-14.2-7.7-1.9-14.3-7.2-17.9-14.4-15.3-.3-28.8-11.4-31.4-27.1-1.4-8.2.4-16.5 5-23.3-4.1-10.6-1.1-22.8 7.8-30.5l17.7-15.2c8.9-7.7 21.4-8.7 31.3-3 6.2-2.9 13.2-3.7 20.1-2.3 8.5 1.7 15.8 6.6 20.6 13.9 4.4 6.7 6.2 14.6 5.1 22.3 6.5 4.6 10.7 11.9 11.4 19.9 5.1 1.1 9.7 3.9 13.1 8 8.2 10.2 6.7 25.2-3.2 33.5-3.5 3-4.5 8-2.3 12.1l3.2 6.2c1.5 2.9.8 6.4-1.7 8.5L232.7 265c-2.5 2.1-6.1 2.2-8.7.3l-5.7-4.1c-3.8-2.7-8.9-2.5-12.4.5-4.4 4-10 5.9-15.6 5.9zm-16.1-35.2c2.1 0 4.2 1 5.5 2.7 1.4 1.8 1.9 4.1 1.2 6.3-.9 3.2-.2 6.6 2.1 9.1 3.6 3.9 9.8 4.3 13.9.7 8.5-7.3 20.8-7.8 29.8-1.2l1.2.9 4.2-3.6-.7-1.3c-5.1-9.9-2.7-21.9 5.7-29.2 4.2-3.5 4.8-9.8 1.4-14-2.1-2.5-5.3-3.8-8.7-3.4-2.2.3-4.5-.5-6-2.2-1.5-1.7-2.2-4-1.7-6.2 1.3-6.3-2.1-12.6-8-15-3.4-1.4-5.1-5.2-4-8.7 1.8-5.4 1-11.2-2.1-15.9-2.7-4.1-6.9-6.9-11.7-7.9-4.8-1-9.7 0-13.8 2.7-2.6 1.7-6 1.5-8.4-.5-5-4.2-12.3-4.2-17.3.1l-17.7 15.1c-5 4.3-6.1 11.5-2.7 17.1 1.6 2.7 1.3 6.1-.8 8.4-3.8 4.2-5.5 9.8-4.6 15.4 1.7 10 11.1 16.8 21.2 15.1 3.6-.6 7.1 1.7 8 5.3 1.5 6.2 7.2 10.5 13.6 10.2h.4z"/><path class="st2" d="M234.5 261.3c-2 0-3.9-.8-5.3-2.4l-76.5-89.4c-2.5-2.9-2.2-7.4.8-9.9 2.9-2.5 7.4-2.2 9.9.8l76.5 89.4c2.5 2.9 2.2 7.4-.8 9.9-1.4 1.1-3 1.6-4.6 1.6z"/>
<path class="st2" d="M174.5 211.6c-14.6 0-27.9-6.8-28.7-7.2-3.4-1.8-4.8-6-3-9.4 1.8-3.4 6-4.7 9.4-3 5.6 2.9 22.5 9.1 33.3 3.1 3.4-1.9 7.6-.7 9.5 2.7 1.9 3.4.7 7.6-2.7 9.5-5.6 3.2-11.8 4.3-17.8 4.3zM174 190.7c-2 0-3.9-.8-5.3-2.5-2.5-2.9-2.2-7.4.8-9.9 11.9-10.1 17.6-17.6 17.6-17.7 2.3-3.1 6.7-3.7 9.8-1.4 3.1 2.3 3.7 6.7 1.4 9.8-.3.3-6.6 8.6-19.7 19.9-1.3 1.2-3 1.8-4.6 1.8z"/>
<path class="st0" d="m261.6 231.1 2.4-8c2.7-9-1.2-18.6-9.3-23.3-9.5-5.5-13.2-17.6-7.9-27.2 3.3-5.9 9.4-9.8 16.2-10.2-4.4-10.8-.5-23.1 9.3-29.5-8.1-14.6-2.8-33 11.8-41.1 8.1-4.5 17.9-5 26.5-1.4 7.5-9.2 20.6-11.6 30.9-5.7l24 13.9c10.3 5.9 14.8 18.5 10.5 29.6 13.3 10.1 16 29 5.9 42.3-5.6 7.4-14.3 11.8-23.6 12-.6 11.6-9.4 21.2-20.9 22.8 3 6.1 2.8 13.3-.7 19.1-5.6 9.4-18 12.3-27.5 6.8-8.1-4.7-18.4-3.1-24.8 3.7l-5.7 6-17.1-9.8z"/>
<path class="st1" d="m353.5 91.8-12-6.9c-10.3-5.9-23.4-3.6-30.9 5.7-15.4-6.5-33.1.6-39.6 16-3.6 8.5-3.1 18.3 1.4 26.4-9.8 6.3-13.6 18.7-9.3 29.5-6.8.4-12.9 4.2-16.2 10.2-5.4 9.6-1.6 21.7 7.9 27.2 8.1 4.7 11.9 14.4 9.2 23.3l-2.4 8 8.6 4.9 83.3-144.3z"/>
<path class="st2" d="M278.8 248c-1.2 0-2.4-.3-3.5-.9l-17.1-9.9c-2.8-1.6-4.1-5-3.2-8.1l2.4-8c1.8-5.9-.7-12.2-6.1-15.3-12.9-7.5-17.6-23.9-10.5-36.7 3.1-5.6 8-9.8 13.8-12-1.2-9.7 2.2-19.4 9.2-26.3-6.1-16.9.8-36.2 17-45.2 8.6-4.8 18.6-5.9 27.9-3.3 9.9-8.8 24.5-10.5 36.3-3.6l24 13.9c11.8 6.8 17.7 20.3 15 33.3 5.8 5.7 9.6 13.1 10.7 21.3 1.4 9.8-1.2 19.6-7.1 27.6-5.7 7.6-13.9 12.6-23.1 14.2-2.4 9.5-9.2 17.3-18.2 21.1 1 6.1-.2 12.4-3.5 17.9-7.5 12.6-24.1 16.7-37 9.2-5.3-3.1-12-2.1-16.2 2.4l-5.8 6c-1.3 1.7-3.2 2.4-5 2.4zm-8.9-20.2 7.6 4.4 1.9-2c8.6-9.2 22.4-11.2 33.4-4.9 6.3 3.7 14.4 1.7 18-4.3 2.3-3.8 2.5-8.4.5-12.4-1-2-1-4.4.1-6.4s3-3.4 5.2-3.7c8.2-1.1 14.4-7.9 14.9-16.2.2-3.7 3.2-6.6 6.9-6.6 7.2-.1 13.8-3.5 18.1-9.2 3.7-5 5.3-11.1 4.5-17.2-.9-6.1-4.1-11.6-9-15.3-2.5-1.9-3.4-5.2-2.3-8.1 3-7.9-.1-16.8-7.5-21.1l-24-13.9c-7.4-4.3-16.6-2.6-22 4-2 2.4-5.3 3.2-8.2 2-6.6-2.8-14-2.4-20.3 1.1-11.2 6.2-15.3 20.4-9.1 31.6 1.8 3.2.8 7.3-2.3 9.3-6.9 4.5-9.7 13.3-6.6 21 .8 2.1.6 4.5-.6 6.4-1.2 1.9-3.3 3.1-5.5 3.3-4.4.3-8.4 2.7-10.5 6.6-3.4 6.1-1.1 14.1 5.3 17.8 11 6.3 16.1 19.2 12.5 31.4l-1 2.4z"/><path class="st2" d="M270.2 243.1c-1.2 0-2.4-.3-3.5-.9-3.3-1.9-4.5-6.2-2.6-9.6l70.1-121.4c1.9-3.3 6.2-4.5 9.6-2.6 3.3 1.9 4.5 6.2 2.6 9.6l-70.1 121.4c-1.3 2.2-3.7 3.5-6.1 3.5z"/><path class="st2" d="M311.9 171c-1.6 0-3.3-.6-4.6-1.8-19.6-17.3-15-50.8-14.8-52.2.6-3.8 4.1-6.5 7.9-5.9 3.8.6 6.5 4.1 5.9 7.9 0 .4-3.7 27.6 10.2 39.8 2.9 2.6 3.2 7 .6 9.9-1.4 1.5-3.3 2.3-5.2 2.3zM354.1 160.7c-.7 0-1.4-.1-2.1-.3-.5-.2-12.2-3.9-29.8-14.1-3.3-1.9-4.5-6.2-2.6-9.6 1.9-3.3 6.2-4.5 9.6-2.6 16.4 9.5 27 12.9 27.1 12.9 3.7 1.2 5.7 5.1 4.6 8.8-1.1 3-3.9 4.9-6.8 4.9z"/>
<path class="st3" d="M323.5 294.9c0-38.8-31.5-70.3-70.3-70.3s-70.3 31.5-70.3 70.3c0 13.7 4 27.1 11.5 38.5l18.4 43.4c3 7 8.7 12.4 15.9 15 7.6 2.7 13.6 8.7 16.3 16.2l8.3 22.4 8.3-22.4c2.8-7.6 8.8-13.5 16.4-16.2 7.2-2.6 12.9-8 15.9-15l18.4-43.4c7.2-11.5 11.2-24.8 11.2-38.5z"/>
<circle cx="253.2" cy="294.9" r="70.3" style="fill:#fe8e46"/>
<path class="st5" d="M303.4 294.9h-10c0-8.2-2.5-16-7.1-22.8l8.2-5.7c5.8 8.4 8.9 18.3 8.9 28.5zM273.3 260c-6.1-3.5-13-5.3-20-5.3h-.1v-10h.2c8.7 0 17.4 2.3 24.9 6.7l-5 8.6z"/>
<path class="st3" d="M272.1 327.4c-28.4 0-51.4-23-51.5-51.4 0-25.1 18.1-46.5 42.8-50.7-38.4-5.6-74.2 20.9-79.8 59.4-5.6 38.4 20.9 74.2 59.4 79.8 38.4 5.6 74.2-20.9 79.8-59.4 1-6.8 1-13.7 0-20.4-4.3 24.7-25.7 42.7-50.7 42.7z"/>
<path class="st2" d="M253.2 437.4c-2.9 0-5.6-1.8-6.6-4.6l-8.3-22.4c-2.1-5.6-6.5-10-12.1-12.1-9-3.2-16.2-10.1-20-18.9L188 336.5c-8-12.5-12.3-26.9-12.3-41.8 0-42.6 34.7-77.3 77.3-77.3 20.7 0 40.1 8.1 54.7 22.7 14.6 14.6 22.6 34 22.6 54.7 0 14.9-4.2 29.3-12.2 41.8l-18.2 42.8c-3.7 8.8-11 15.6-20 18.9-5.6 2-10.1 6.4-12.2 12.1l-8.2 22.4c-.8 2.8-3.4 4.6-6.3 4.6zm0-205.9c-34.9 0-63.3 28.4-63.3 63.3 0 12.3 3.6 24.3 10.3 34.7.2.3.4.7.6 1.1l18.4 43.4c2.2 5.2 6.5 9.2 11.8 11.1 9.6 3.4 17 10.9 20.5 20.4l1.7 4.6 1.7-4.6c3.5-9.5 11-17 20.6-20.4 5.3-1.9 9.6-6 11.8-11.1l18.4-43.4c.2-.4.4-.8.6-1.1 6.8-10.3 10.3-22.3 10.3-34.6 0-16.9-6.6-32.8-18.5-44.8-12.1-12-28-18.6-44.9-18.6z"/>
<path class="st2" d="M266.6 351.3c-8.1 0-14.4-1.1-17.9-1.7-.7-.1-1.4-.3-1.8-.3-3.7-.1-6.7-3.2-6.7-7 0-3.9 3.1-7 7-7 1.1 0 2.2.2 4 .5 33.7 6 53.6-9 60.2-13.8 3.1-2.3 7.5-1.7 9.8 1.4 2.3 3.1 1.7 7.5-1.4 9.8-20 14.7-39.2 18.1-53.2 18.1zm-19.6-2.1h.2-.2zM274.3 381.7c-7 0-11.6-1.4-11.9-1.5-3.7-1.2-5.7-5.1-4.6-8.8 1.2-3.7 5-5.7 8.7-4.6.6.2 12.5 3.5 27.2-3.8 3.5-1.7 7.7-.3 9.4 3.1 1.7 3.5.3 7.7-3.1 9.4-9.9 4.9-18.9 6.2-25.7 6.2z"/></g></svg>